<svg version="1.1" id="icon" xmlns="http://www.w3.org/2000/svg"
     xmlns:xlink="http://www.w3.org/1999/xlink" x="0px" y="0px"
     viewBox="0 0 59.077 59.077"
     style="enable-background:new 0 0 59.077 59.077;" xml:space="preserve">
										<g>
											<path d="M55.906,28.463c-0.235,0.129-0.469,0.258-0.711,0.379c-11.339,5.68-25.186,1.072-30.864-10.268
												C21.8,13.517,21.22,7.726,22.699,2.268L23.315,0l-2.061,1.129C9.807,7.402,5.107,21.605,10.554,33.464
												c0.231,0.501,0.826,0.722,1.326,0.491c0.502-0.23,0.723-0.824,0.492-1.326C7.684,22.424,11.164,10.333,20.253,4.09
												c-0.891,5.221-0.102,10.602,2.289,15.379c5.952,11.884,20.155,16.965,32.216,11.78c-2.045,5.346-6.026,9.775-11.183,12.357
												c-3.167,1.586-6.557,2.407-10.074,2.438c-0.638,0.007-1.285-0.016-1.917-0.063c-0.551-0.05-1.031,0.371-1.072,0.922
												c-0.041,0.551,0.371,1.031,0.922,1.072c0.617,0.046,1.244,0.07,1.867,0.07c0.073,0,0.146,0,0.218-0.001
												c3.825-0.034,7.51-0.926,10.952-2.65c6.357-3.183,11.071-8.95,12.935-15.822l0.562-2.239L55.906,28.463z"></path>
                                            <path d="M31.271,43.412c0.157,0.091,0.329,0.134,0.499,0.134c0.346,0,0.682-0.179,0.867-0.5c0.276-0.479,0.112-1.09-0.366-1.366
												l-2.83-1.634l2.83-1.634c0.479-0.276,0.643-0.888,0.366-1.366c-0.277-0.479-0.89-0.642-1.366-0.366l-2.83,1.634v-3.268
												c0-0.552-0.447-1-1-1s-1,0.448-1,1v3.268l-2.83-1.634c-0.478-0.276-1.09-0.113-1.366,0.366c-0.276,0.479-0.112,1.09,0.366,1.366
												l2.83,1.634l-2.83,1.634c-0.479,0.276-0.643,0.888-0.366,1.366c0.186,0.321,0.521,0.5,0.867,0.5c0.17,0,0.342-0.043,0.499-0.134
												l2.83-1.634v3.268c0,0.552,0.447,1,1,1s1-0.448,1-1v-3.268L31.271,43.412z"></path>
                                            <path d="M11.637,37.046c-0.277-0.479-0.89-0.642-1.366-0.366l-2.83,1.634v-3.268c0-0.552-0.447-1-1-1s-1,0.448-1,1v3.268
												l-2.83-1.634c-0.478-0.276-1.09-0.113-1.366,0.366c-0.276,0.479-0.112,1.09,0.366,1.366l2.83,1.634l-2.83,1.634
												c-0.479,0.276-0.643,0.888-0.366,1.366c0.186,0.321,0.521,0.5,0.867,0.5c0.17,0,0.342-0.043,0.499-0.134l2.83-1.634v3.268
												c0,0.552,0.447,1,1,1s1-0.448,1-1v-3.268l2.83,1.634c0.157,0.091,0.329,0.134,0.499,0.134c0.346,0,0.682-0.179,0.867-0.5
												c0.276-0.479,0.112-1.09-0.366-1.366l-2.83-1.634l2.83-1.634C11.749,38.136,11.913,37.524,11.637,37.046z"></path>
                                            <path d="M22.637,50.077c-0.277-0.479-0.89-0.642-1.366-0.366l-2.83,1.634v-3.268c0-0.552-0.447-1-1-1s-1,0.448-1,1v3.268
												l-2.83-1.634c-0.478-0.276-1.09-0.112-1.366,0.366s-0.112,1.09,0.366,1.366l2.83,1.634l-2.83,1.634
												c-0.479,0.276-0.643,0.888-0.366,1.366c0.186,0.321,0.521,0.5,0.867,0.5c0.17,0,0.342-0.043,0.499-0.134l2.83-1.634v3.268
												c0,0.552,0.447,1,1,1s1-0.448,1-1v-3.268l2.83,1.634c0.157,0.091,0.329,0.134,0.499,0.134c0.346,0,0.682-0.179,0.867-0.5
												c0.276-0.479,0.112-1.09-0.366-1.366l-2.83-1.634l2.83-1.634C22.749,51.167,22.913,50.556,22.637,50.077z"></path>
										</g>
									</svg>