<?xml version="1.0" encoding="utf-8"?>
<!-- Generator: Adobe Illustrator 19.0.0, SVG Export Plug-In . SVG Version: 6.00 Build 0)  -->
<svg version="1.1" id="Calque_1" xmlns="http://www.w3.org/2000/svg" xmlns:xlink="http://www.w3.org/1999/xlink" x="0px" y="0px"
	 viewBox="9 -8 117 117" style="enable-background:new 9 -8 117 117;" xml:space="preserve">
<style type="text/css">
	.st0{fill:#0E2356;}
</style>
<g id="Symbols">
	<g id="Footer" transform="translate(-452.000000, -33.000000)">
		<g id="There-is-a-better-way_footer" transform="translate(58.000000, 33.000000)">
			<g transform="translate(394.000000, 0.000000)">
				<path id="Fill-1" class="st0" d="M53.2,51.1c0,0,9-2.2,10.9-7c1.6-4.2-3.9-7.1-13.3-7.2C25,36.5,21.2,51.6,32.1,51.8
					c4,0,6.7-0.8,8.6-2.3l-1-1.4c-1.2,1-3.8,1.7-5.2,1.7c-6.6-0.1,1-10.7,11.5-10.6c2.4,0,1.9,2.9-1.1,6.6
					c-11,14-14.9,19.2-3.6,19.4c6.3,0.1,15.1-3.5,17.1-8.8C60.3,51.5,54,51.1,53.2,51.1 M58.4,44.8c-1.2,3.2-6.8,5.6-10.2,5.8
					c0.4-0.5,0.8-1,1.2-1.5c2.9-3.7,4.8-8.2,3-10C57.2,39.2,59.7,41.5,58.4,44.8 M41.8,63.1c-3.7,0-0.4-4,5.3-11.2
					c2.2,0.2,6.5,1,5.1,4.6C50.9,60,44.9,63.2,41.8,63.1"/>
				<path id="Fill-3" class="st0" d="M85.3,39.5c0,0,3,1.7,3,2.9S74.7,57,74.7,61.6c4.3-0.9,11.7-5.7,11.7-5.7l1.1,1
					c0,0-8,7.2-12.5,7.2c-2.5,0-4-3.8-4-5.1C71.1,57.5,84.8,40.5,85.3,39.5"/>
				<path id="Fill-5" class="st0" d="M97.8,39.6c0,0,3,1.7,3,2.9S87.2,57.1,87.2,61.7c4.3-0.9,11.7-5.8,11.7-5.8l1.1,1
					c0,0-8,7.2-12.5,7.2c-2.5,0-4-3.8-4-5.1C83.5,57.7,97.2,40.7,97.8,39.6"/>
				<path id="Fill-7" class="st0" d="M68.7,46.6c0,0,2.3,3,4.6,3c1.6,0,11.9-2.5,33.4-3.1c-0.2-0.8-1.5-1.8-3.1-1.8
					S87.4,44.4,68.7,46.6"/>
				<path id="Fill-9" class="st0" d="M73.7,55.5c-2,4.1-7.7,7.4-11.5,7.4c-1,0-1.7-0.2-2.1-0.6c-0.4-0.4-0.3-1,0.1-1.8
					c0.2-0.3,0.4-0.7,0.6-1c6.1-2,10.7-4.7,10.8-6.3c0-1.1-2-3.4-3.5-3.4l0,0c-2.3,0-5,1.3-7.4,3.5c-1.4,1.3-2.5,2.8-3.2,4.2
					l-0.8,3.2c0,1.1,0.4,1.9,1.2,2.6c1,0.9,2.7,1.4,4.9,1.4h0.1c8.9,0.1,13.1-5.3,13.1-6.9C75.9,56.5,73.7,55.5,73.7,55.5
					 M68.6,52.4L68.6,52.4c0.3,0,0.3,0.1,0.3,0.1c0.2,0.6-2.9,2.9-6.3,4.7C64.6,54.7,67.2,52.4,68.6,52.4"/>
				<path id="Fill-11" class="st0" d="M111.3,55.1c-2,4.1-7.7,7.4-11.5,7.4c-1,0-1.7-0.2-2.1-0.6c-0.4-0.4-0.3-1,0.1-1.8
					c0.2-0.3,0.4-0.7,0.6-1c6.1-2,10.7-4.7,10.8-6.3c0-1.1-2-3.4-3.5-3.4l0,0c-2.3,0-5,1.3-7.4,3.5c-1.4,1.3-2.5,2.8-3.2,4.2
					l-0.8,3.1c0,1.1,0.4,1.9,1.2,2.6c1,0.9,2.7,1.4,4.9,1.4h0.1c8.9,0.1,13.1-5.3,13.1-6.9C113.6,56.1,111.3,55.1,111.3,55.1
					 M106.2,52L106.2,52c0.3,0,0.3,0.1,0.3,0.1c0.2,0.6-2.9,2.9-6.3,4.7C102.3,54.3,104.9,52,106.2,52"/>
				<path id="Fill-13" class="st0" d="M109.5,13.4c-2,4.1-7.7,7.5-11.5,7.5c-1,0-1.7-0.2-2.1-0.6s-0.3-1,0.1-1.8
					c0.2-0.3,0.4-0.7,0.6-1c6.1-2.1,10.7-4.8,10.8-6.4c0-1.1-2-3.3-3.5-3.3l0,0c-2.3,0-5,1.3-7.4,3.6l-0.1,0.1c0.3-1.3,0.1-3-2.1-3
					c-3.2,0-6.7,4.4-10,8.2c1.5-3,4-5.9,4-6.8c0-1.6-2.2-2-3.3-2.3c-0.2,0.9-2.6,5-4.6,8.2c-2.6,3.2-7.1,5.5-10.2,5.5
					c-1,0-1.7-0.2-2.1-0.6s-0.3-1,0.1-1.8c0.2-0.3,0.4-0.7,0.6-1c6.1-2.1,10.7-4.8,10.8-6.4c0-1.1-2-3.3-3.5-3.3l0,0
					c-2.3,0-5,1.3-7.4,3.6c-1.4,1.3-2.5,2.8-3.2,4.2c-2.9,2.1-6.1,4.1-7.6,4.1c-2.8,0,6-9.1,5.9-9.8s-2.2-1.9-4-2.7
					c-3.7,2.2-8.6,5-12.5,9c1.8-3.1,12.2-16.1,12.2-19c0-0.9-1.1-1.3-2.4-1.9c2.8,0,5.3,0,7.4,0.1c1,0.1,0.7-0.3-0.2-1.1
					C62-7.6,52.6-7.8,49.1-7.8C38.3-7.9,24.3-7,15.9-4.7c2.1,2.6,4.2,4.6,6.5,4C27.1-2,34.3-3,41.7-3.8C36.2,0.9,26,15.6,26.8,19.7
					c0.4,2.2,3.2,3.5,4.9,4.3c0-4.8,12-23.7,14.6-26.3c0.4-0.4-0.2-1.1-1.3-1.8c3.6-0.3,7.2-0.5,10.5-0.6C53-0.8,41,19.2,41,19.2
					c0.4,1,2.4,2.7,3.5,2.7c1.3,0,9.2-9.1,12.8-10.5c-2.4,3.1-4.8,6-4.5,7.7s3.2,3.3,4.9,3.3c1.5,0,4.3-1.6,7-3.5l0,0
					c0,1.1,0.4,1.9,1.2,2.6c1,0.9,2.7,1.3,4.9,1.3h0.1c3.4,0,6.2-0.8,8.2-1.9c0.9,0.6,1.9,0.9,2.5,0.9c1.1,0,6.3-7.8,9.8-9.7l4,0.4
					c-0.9,1-1.5,2-2,3c0,0-0.8,1.5-0.8,3.2c0,1.1,0.4,1.9,1.2,2.6c1,0.9,2.7,1.3,4.9,1.3h0.1c8.9,0,13.1-5.5,13.1-7
					C111.8,14.3,109.5,13.4,109.5,13.4 M104.4,10.3L104.4,10.3c0.3,0,0.3,0.1,0.3,0.1c0.2,0.6-2.9,2.9-6.3,4.7
					C100.5,12.7,103.1,10.3,104.4,10.3 M76.7,10.6L76.7,10.6c0.3,0,0.3,0.1,0.3,0.1c0.2,0.6-2.9,2.9-6.3,4.7
					C72.7,12.9,75.3,10.6,76.7,10.6"/>
				<path id="Fill-15" class="st0" d="M107.2,61.5c0.9,1.2,2.8,2,3.7,2c1.1,0,6.3-7.7,9.8-9.6l4.5,0.5c0.8-0.8,1.6-4.1-1.5-4.2
					c-3.2,0-6.7,4.4-10,8.1c1.5-2.9,4-5.9,4-6.8c0-1.6-2.2-2-3.3-2.3C113.9,50.8,107.2,61.5,107.2,61.5"/>
				<path id="Fill-17" class="st0" d="M79.9,37.4c3.3-1.2,2-5.9,0.4-8.3c-0.9-1.3-3.6-1.7-3.6-1.7c-0.8,2.7-8.6,11.2-11,11.2
					s3.6-5.6,3.2-7.9c-0.1-0.8-1.4-1.6-2.5-2.1c1.9-0.6,4.9-1.8,5-3.4c0.4-3.4-5.1-2.9-5.1-2.9s0.5,2.9-0.9,5.9
					c-0.2-0.1-0.6-0.2-0.6-0.2c0,2.2-4.4,7.6-3.9,10.4c0.2,1.3,3,2.8,4.6,2.8c0.9,0,2.1-0.6,3.5-1.5c0.7,0.7,2.5,2.1,5.8,2.1
					c3.9,0,11.8-4.6,14.6-2l0.2-0.5C89,36.8,86.2,35.4,79.9,37.4 M69.5,39.2c3.4-2.3,7.4-6.2,8.2-7.7C78.8,34,79.9,39.9,69.5,39.2"
					/>
				<path id="Fill-19" class="st0" d="M26.7,82.6c-9.9-3-1.5-16.4,9.7-16.4c9.3,0-4.4,17.6-4.4,23.2c0,0.7,2.9,2.7,4.7,2.7
					c5.4,0,23.8-15.7,23.8-19.1c0-2-3.7-2.4-3.7-2.4C56.5,73,46.6,85.6,36,89.9c1.7-4.1,9-16.5,9-20.5c0-2.3-1.8-5.2-8.2-5.2
					c-15.2,0-20.1,8.7-20.1,13.3C16.8,85.1,26.7,82.6,26.7,82.6"/>
				<path id="Fill-21" class="st0" d="M55.7,68c0,10.4-8.1,15.3-8.1,20.9c0,0.7,2.3,2.8,4.1,2.8c7.6,0,28.2-18.2,28.2-22.3
					c0-2-5.7-3.6-5.7-3.6c0,7.4-12.4,20.3-22.3,23.4c1.7-4.1,9.7-15,9.7-19C61.7,68.3,57.6,68,55.7,68"/>
				<path id="Fill-23" class="st0" d="M27.7,53.4c2,3.3-2.9,8.5-6.3,8.1c-2.1-0.2,3.8-10.1,6.2-12.2c0,0-0.9-1.1-2.3-1.2
					c-0.8-0.1-1.6,0.3-2.4,1c-0.6-0.3-1.5-0.7-2.8-0.8c-8.9-1-15,14.2-8,14.9c2.4,0.3,4.3-1.1,5.6-2.5c0,1.6,0.8,2.4,2.2,2.5
					c5.8,0.6,10.1-4.2,10.5-6.5C30.8,53.6,27.7,53.4,27.7,53.4 M19.3,54.7C19.3,54.7,19.2,54.7,19.3,54.7c-1.5,3-3.7,6.6-5.5,6.4
					c-2.5-0.3,2.4-12.5,7.8-11c0.1,0,0.1,0,0.2,0.1C20.8,51.5,20,53.1,19.3,54.7"/>
				<path id="Fill-25" class="st0" d="M86,85.7c-1.3,2.6-4.9,5-8.4,4.6c-2.1-0.2,4.9-9.7,7.6-11.7c0,0-0.8-1-2.1-1.2
					c-0.8-0.1-1.7,0.3-2.5,1c-0.6-0.3-1.4-0.7-2.7-0.8C69,76.7,61.2,91.2,68.2,92c2.4,0.2,4.4-1,5.9-2.4C74,91.2,74.7,91.9,76,92
					c5.7,0.6,12.8-4,13.4-6.3C90.2,82.7,86,85.7,86,85.7 M76.3,83.8L76.3,83.8c-1.8,2.9-4.5,6.3-6.2,6.2c-2.5-0.3,3.8-12,9-10.5
					c0.1,0,0.1,0,0.2,0.1C78.2,80.7,77.2,82.3,76.3,83.8"/>
				<g id="Group-29" transform="translate(30.000000, 82.888000)">
					<g id="Clip-28">
					</g>
					<path id="Fill-27" class="st0" d="M79.3-6.6L79.3-6.6l-0.1-0.2c-1.3-0.7-2.6-1-3.2-1c-0.4,0-0.8,0.1-1.1,0.4
						c-0.3,0.3-6.7,6.8-10,9.6c-3.8,3.2-7,4.4-8.8,4.4c0-0.1,8.3-7.5,8.1-10.6c-0.4-3.3-4.7-2.7-4.7-2.7c2.3,4-6.7,10.3-6.5,12.8
						c0.2,0.7,2.6,2.6,3.8,2.6l0,0c1.9,0,4.9-1.7,8.9-5.1c1.8-1.5,3.7-3.2,5.6-5.1c-2,3.3-9.1,12.5-9.1,12.5c0,0.1-0.1,0.1-0.1,0.2
						c-0.6,1.1-0.4,1.9,0.1,2.4c-11.6,3.6-29.8,8.6-42,7.2c-6.8-0.7-8.1-6.4-8.1-6.4c-2.3,2.7-6.9,10.4,2.7,11.4
						c18.2,1.8,41.9-8.5,53-11.7c0.6,1.2,1.7,2.1,3.7,2.2c4.5,0.4,7.9-4.8,3.1-5.2c-2-0.2-6,1.1-7.4,0.9C65.1,12,78.6-5.8,79.3-6.6
						 M73.4,13c1.6,0.1,0.4,1.8-0.9,1.7c-0.9-0.1-1.4-0.4-2-1.1C71.3,13.2,72.5,12.9,73.4,13"/>
				</g>
				<path id="Fill-30" class="st0" d="M53.8,32.4c5.3,0.6,10.3,0.9,11.5-2.1c-4.9,1.5-17.6-2.9-23.1-2.9s-6.3,3.8-3.9,6.2
					c1.3-3.1,7.2-2.3,13.2-1.5L53.8,32.4z"/>
				<path id="Fill-32" class="st0" d="M91.5,32.4C86.2,33,81.2,33.3,80,30.3c4.9,1.5,17.6-2.9,23.1-2.9s6.3,3.8,3.9,6.2
					c-1.3-3.1-7.2-2.3-13.2-1.5L91.5,32.4z"/>
			</g>
		</g>
	</g>
</g>
</svg>
